<mxfile host="multicloud-diagrams" agent="PIP package multicloud-diagrams. Generate resources in draw.io compatible format for Cloud infrastructure. Copyrights @ Roman Tsypuk 2023. MIT license." type="MultiCloud">
	<diagram id="diagram_1" name="AWS components">
		<mxGraphModel dx="1015" dy="661" grid="1" gridSize="10" guides="1" tooltips="1" connect="1" arrows="1" fold="1" page="1" pageScale="1" pageWidth="850" pageHeight="1100" math="0" shadow="1">
			<root>
				<mxCell id="0"/>
				<mxCell id="1" parent="0"/>
				<mxCell id="vertex:glacier_instant_retrival:arn:aws:glacier:::content_bucket" value="&lt;b&gt;Name&lt;/b&gt;: content_bucket&lt;BR&gt;&lt;b&gt;ARN&lt;/b&gt;: arn:aws:glacier:::content_bucket&lt;BR&gt;-----------&lt;BR&gt;&lt;b&gt;x-amz-bucket-region&lt;/b&gt;: eu-west-1&lt;BR&gt;&lt;b&gt;CreationDate&lt;/b&gt;: 2023-11-11&lt;BR&gt;&lt;b&gt;AbortIncompleteMultipartUpload&lt;/b&gt;: {'DaysAfterInitiation': 5}&lt;BR&gt;&lt;b&gt;Expiration&lt;/b&gt;: {'Days': 90}&lt;BR&gt;&lt;b&gt;MFADelete&lt;/b&gt;: Disabled" style="sketch=0;outlineConnect=0;gradientColor=none;fillColor=#3F8624;strokeColor=none;dashed=0;verticalLabelPosition=bottom;verticalAlign=top;align=left;html=1;fontSize=12;fontStyle=0;aspect=fixed;pointerEvents=1;shape=mxgraph.aws4.simple_storage_service_s3_glacier_instant_retrieval;" parent="1" vertex="1">
					<mxGeometry width="78" height="78" as="geometry"/>
				</mxCell>
			</root>
		</mxGraphModel>
	</diagram>
</mxfile>